<svg width="19" height="20" viewBox="0 0 19 20" fill="none" xmlns="http://www.w3.org/2000/svg">
<g clip-path="url(#clip0_981_56747)">
<path d="M8.9426 0C8.9426 3.19469 8.9426 6.38938 8.9426 9.68088C9.16832 9.63561 9.39404 9.59034 9.6266 9.54369C9.78896 9.51116 9.95131 9.47864 10.1137 9.44615C10.1477 9.43935 10.1817 9.43254 10.2157 9.42573C10.2284 9.4232 10.2411 9.42066 10.2537 9.41813C10.3696 9.39494 10.4855 9.3717 10.6013 9.34841C10.656 9.33743 10.7106 9.32646 10.7653 9.3155C10.8129 9.30594 10.8605 9.29637 10.9081 9.28677C10.9372 9.28091 10.9663 9.27507 10.9954 9.26924C11.0089 9.26653 11.0224 9.26382 11.0359 9.2611C11.0542 9.2574 11.0725 9.25373 11.0908 9.25007C11.0988 9.24844 11.0988 9.24844 11.107 9.24678C11.1293 9.24235 11.149 9.23949 11.1719 9.23949C11.1719 9.23392 11.1719 9.22835 11.1719 9.22262C11.1711 8.71594 11.1703 8.20926 11.1695 7.4049C11.1695 7.39577 11.1695 7.38663 11.1695 7.37749C11.1693 7.18567 11.1692 6.99385 11.169 6.80202C11.169 6.70567 11.1689 6.60931 11.1688 6.51295C11.1688 6.49842 11.1688 6.48388 11.1688 6.46935C11.1686 6.24552 11.1684 6.02169 11.168 5.79786C11.168 5.79305 11.168 5.78824 11.168 5.78328C11.1679 5.70568 11.1677 5.62809 11.1676 5.55049C11.1672 5.327 11.1669 5.10351 11.1667 4.88002C11.1667 4.87313 11.1667 4.87313 11.1667 4.86609C11.1667 4.76521 11.1666 4.66432 11.1666 4.56343C11.1666 4.52284 11.1665 4.48225 11.1665 4.44166C11.1665 4.43721 11.1665 4.43277 11.1665 4.42819C11.1665 4.28504 11.1662 4.14188 11.1659 3.99873C11.1655 3.85453 11.1654 3.71032 11.1655 3.56612C11.1655 3.47663 11.1654 3.38715 11.1651 3.29766C11.1648 3.2406 11.1648 3.18354 11.165 3.12647C11.1651 3.09394 11.1651 3.0614 11.1648 3.02886C11.1646 2.99926 11.1646 2.96967 11.1649 2.94006C11.1649 2.92942 11.1648 2.91878 11.1647 2.90814C11.1638 2.84685 11.1672 2.80875 11.2148 2.76244C11.2218 2.75617 11.2218 2.75617 11.2289 2.74978C11.2355 2.74261 11.2421 2.73538 11.2485 2.72804C11.2542 2.72173 11.26 2.71543 11.2657 2.70914C11.2723 2.70201 11.2788 2.69488 11.2853 2.68775C11.2886 2.68419 11.2918 2.68064 11.2952 2.67697C11.3047 2.66653 11.3141 2.65604 11.3236 2.64553C11.364 2.60048 11.406 2.557 11.4489 2.51405C11.4664 2.49656 11.4835 2.4788 11.5005 2.46086C11.5208 2.43939 11.5419 2.4189 11.5639 2.39892C11.5749 2.38824 11.585 2.37739 11.5953 2.36605C11.6285 2.33002 11.6648 2.29668 11.7006 2.26299C11.713 2.25137 11.7254 2.23971 11.7377 2.22805C11.773 2.19483 11.8081 2.16185 11.8461 2.13142C11.8596 2.12048 11.872 2.10867 11.8844 2.09663C11.9053 2.07678 11.9266 2.05814 11.9491 2.03999C11.964 2.0277 11.9785 2.01506 11.993 2.00234C12.0272 1.97223 12.0621 1.94359 12.0986 1.91596C12.1164 1.90212 12.1335 1.88768 12.1504 1.87295C12.1842 1.84376 12.2193 1.81652 12.2549 1.78944C12.2627 1.78349 12.2704 1.77753 12.2781 1.77157C12.3256 1.73482 12.3738 1.6989 12.4228 1.66387C12.4509 1.64377 12.4788 1.6234 12.5066 1.60284C12.5608 1.56277 12.6161 1.52475 12.6727 1.48777C12.6848 1.47977 12.6969 1.47168 12.7089 1.46352C12.8833 1.34559 13.0645 1.23625 13.2493 1.13331C13.2559 1.12959 13.2626 1.12587 13.2695 1.12204C13.2904 1.11036 13.3114 1.09871 13.3324 1.08709C13.339 1.08338 13.3457 1.07968 13.3526 1.07586C13.3587 1.07246 13.3649 1.06906 13.3712 1.06556C13.3767 1.06251 13.3822 1.05947 13.3879 1.05634C13.4013 1.04981 13.4013 1.04981 13.4139 1.04981C13.4139 3.6028 13.4139 6.1558 13.4139 8.78616C13.6689 8.73498 13.9239 8.68381 14.1866 8.63108C14.3125 8.60585 14.4384 8.58062 14.5643 8.55542C14.605 8.54727 14.6457 8.53912 14.6865 8.53097C14.7036 8.52755 14.7206 8.52413 14.7377 8.52071C14.742 8.51986 14.7462 8.51901 14.7506 8.51813C14.7804 8.51217 14.8102 8.50621 14.84 8.50025C14.9559 8.47703 15.0719 8.45381 15.1879 8.43058C15.5494 8.35819 15.9108 8.28585 16.2723 8.21358C16.632 8.14166 16.9917 8.06968 17.3513 7.99765C17.4647 7.97495 17.578 7.95226 17.6914 7.92957C17.7473 7.91838 17.8033 7.90717 17.8593 7.89597C17.9016 7.8875 17.9439 7.87904 17.9862 7.87057C18.1574 7.83632 18.3285 7.80202 18.4996 7.76749C18.5231 7.76275 18.5466 7.75801 18.5701 7.75327C18.5854 7.7502 18.6006 7.74713 18.6158 7.74406C18.6232 7.74257 18.6306 7.74108 18.6382 7.73955C18.6814 7.73083 18.7246 7.7221 18.7678 7.71335C18.794 7.70805 18.8202 7.70276 18.8464 7.69748C18.8584 7.69504 18.8705 7.6926 18.8826 7.69014C18.8989 7.68682 18.9153 7.68353 18.9317 7.68023C18.9364 7.67926 18.9412 7.67828 18.9461 7.67728C18.9645 7.67361 18.9811 7.67074 18.9999 7.67074C19.0034 7.73468 18.9932 7.79763 18.9845 7.86087C18.9837 7.86693 18.9828 7.87299 18.982 7.87923C18.9036 8.44803 18.7575 9.01108 18.4345 9.79333C18.4275 9.80916 18.4206 9.825 18.4138 9.84088C18.4053 9.86054 18.3967 9.88013 18.388 9.89972C18.3856 9.90531 18.3832 9.91091 18.3807 9.91667C18.3785 9.92168 18.3762 9.92669 18.3739 9.93185C18.372 9.93613 18.3701 9.94041 18.3682 9.94482C18.3521 9.96612 18.321 9.9694 18.2951 9.97456C18.2884 9.9759 18.2818 9.97724 18.2749 9.97862C18.2677 9.98005 18.2604 9.98149 18.2529 9.98297C18.2413 9.98529 18.2413 9.98529 18.2294 9.98766C18.208 9.99195 18.1865 9.99621 18.1651 10.0005C18.1421 10.005 18.1191 10.0096 18.0961 10.0142C18.0565 10.0221 18.0168 10.03 17.9771 10.0379C17.9139 10.0504 17.8508 10.063 17.7876 10.0756C17.7662 10.0799 17.7447 10.0842 17.7233 10.0885C17.718 10.0895 17.7126 10.0906 17.7071 10.0917C17.6691 10.0993 17.6311 10.1068 17.5931 10.1144C17.4607 10.1408 17.3284 10.1672 17.1961 10.1937C17.188 10.1953 17.1798 10.1969 17.1715 10.1986C17.131 10.2067 17.0905 10.2148 17.05 10.223C16.9723 10.2385 16.8946 10.2541 16.8169 10.2696C16.8045 10.2721 16.792 10.2746 16.7795 10.2771C16.5704 10.319 16.3612 10.3608 16.152 10.4027C15.8605 10.4609 15.5691 10.5192 15.2776 10.5776C15.2653 10.5801 15.2529 10.5826 15.2405 10.585C15.0959 10.614 14.9512 10.643 14.8066 10.6719C14.772 10.6789 14.7374 10.6858 14.7028 10.6927C14.6811 10.6971 14.6594 10.7014 14.6378 10.7057C14.5484 10.7236 14.4589 10.7416 14.3695 10.7594C14.3407 10.7652 14.3119 10.771 14.2831 10.7767C14.2668 10.78 14.2505 10.7833 14.2343 10.7865C14.1307 10.8072 14.0271 10.828 13.9235 10.8488C13.8713 10.8593 13.8192 10.8698 13.767 10.8802C13.7257 10.8885 13.6844 10.8968 13.6431 10.9051C13.6181 10.9102 13.5931 10.9152 13.5681 10.9202C13.5566 10.9225 13.5451 10.9248 13.5336 10.9271C13.518 10.9303 13.5025 10.9334 13.4869 10.9365C13.4824 10.9374 13.4779 10.9383 13.4733 10.9393C13.4528 10.9433 13.435 10.9454 13.4139 10.9454C13.4139 11.654 13.4139 12.3627 13.4139 13.0928C13.439 13.0868 13.4641 13.0809 13.4899 13.0749C13.5159 13.0694 13.5418 13.0641 13.5678 13.059C13.5789 13.0567 13.5789 13.0567 13.5903 13.0544C13.6107 13.0503 13.6312 13.0463 13.6516 13.0422C13.6735 13.0378 13.6955 13.0334 13.7175 13.029C13.7554 13.0214 13.7933 13.0138 13.8313 13.0063C13.8866 12.9952 13.9419 12.9841 13.9973 12.9731C14.0804 12.9564 14.1636 12.9398 14.2468 12.9231C14.3611 12.9003 14.4754 12.8774 14.5896 12.8545C14.5978 12.8529 14.6059 12.8513 14.6143 12.8496C14.647 12.8431 14.6796 12.8365 14.7122 12.83C14.7694 12.8185 14.8266 12.8071 14.8837 12.7956C15.0584 12.7607 15.2331 12.7257 15.4078 12.6907C15.4124 12.6898 15.417 12.6888 15.4218 12.6879C15.4925 12.6737 15.5631 12.6596 15.6338 12.6454C15.9249 12.5871 16.216 12.5287 16.5071 12.4705C16.565 12.4589 16.6229 12.4473 16.6807 12.4357C16.6849 12.4349 16.689 12.434 16.6932 12.4332C16.8305 12.4057 16.9678 12.3782 17.1051 12.3507C17.1097 12.3498 17.1144 12.3488 17.1191 12.3479C17.1992 12.3318 17.2792 12.3158 17.3592 12.2998C17.4245 12.2867 17.4898 12.2736 17.5551 12.2605C17.5597 12.2596 17.5643 12.2587 17.5691 12.2577C17.7125 12.229 17.8559 12.2002 17.9993 12.1715C18.0084 12.1697 18.0175 12.1679 18.0266 12.1661C18.1124 12.1489 18.1981 12.1317 18.2839 12.1146C18.3073 12.1099 18.3306 12.1052 18.3539 12.1005C18.3841 12.0945 18.4142 12.0885 18.4444 12.0824C18.517 12.0679 18.5897 12.0533 18.6623 12.0386C18.6939 12.0322 18.7254 12.0258 18.757 12.0194C18.7829 12.0142 18.8087 12.0089 18.8346 12.0036C18.8543 11.9996 18.874 11.9957 18.8937 11.9917C18.9008 11.9902 18.9079 11.9888 18.9152 11.9873C18.9218 11.9859 18.9283 11.9846 18.9351 11.9833C18.9408 11.9821 18.9464 11.981 18.9523 11.9798C18.9685 11.9773 18.9836 11.9769 18.9999 11.9773C19.0008 12.0168 18.9987 12.0549 18.9934 12.0941C18.9927 12.0994 18.992 12.1048 18.9913 12.1103C18.9889 12.1279 18.9865 12.1454 18.9841 12.163C18.9833 12.1691 18.9824 12.1752 18.9816 12.1815C18.9042 12.7429 18.7617 13.2972 18.4656 14.0248C18.4632 14.0302 18.4608 14.0356 18.4584 14.0412C18.445 14.0721 18.4313 14.1029 18.4175 14.1336C18.4108 14.1488 18.4043 14.1641 18.3978 14.1795C18.3935 14.1893 18.3893 14.199 18.385 14.2088C18.3831 14.2133 18.3813 14.2178 18.3794 14.2224C18.3766 14.2287 18.3766 14.2287 18.3738 14.235C18.3722 14.2386 18.3707 14.2422 18.3691 14.246C18.3433 14.275 18.2923 14.2797 18.255 14.2869C18.2489 14.2881 18.2429 14.2893 18.2366 14.2906C18.2163 14.2946 18.196 14.2986 18.1757 14.3025C18.161 14.3054 18.1463 14.3083 18.1316 14.3113C18.0997 14.3176 18.0678 14.3239 18.0359 14.3301C17.9841 14.3403 17.9324 14.3505 17.8807 14.3608C17.8762 14.3617 17.8718 14.3625 17.8672 14.3634C17.849 14.367 17.8309 14.3706 17.8127 14.3742C17.7845 14.3798 17.7564 14.3854 17.7282 14.391C17.5838 14.4195 17.4394 14.4483 17.2951 14.4773C17.29 14.4783 17.285 14.4793 17.2798 14.4803C17.218 14.4927 17.1562 14.5051 17.0945 14.5175C17.0369 14.5291 16.9794 14.5406 16.9218 14.5522C16.9114 14.5543 16.9009 14.5564 16.8904 14.5585C16.8748 14.5616 16.8591 14.5647 16.8435 14.5679C16.8124 14.5741 16.7813 14.5804 16.7502 14.5866C16.5557 14.6256 16.3612 14.6646 16.1667 14.7035C16.142 14.7085 16.1173 14.7134 16.0926 14.7184C16.0112 14.7347 15.9297 14.751 15.8482 14.7673C15.6878 14.7994 15.5273 14.8315 15.3668 14.8637C15.3543 14.8662 15.3418 14.8687 15.3294 14.8712C15.0529 14.9265 14.7765 14.9819 14.5001 15.0373C14.2195 15.0935 13.9389 15.1497 13.6584 15.2059C13.6459 15.2084 13.6334 15.2109 13.621 15.2134C13.4888 15.2398 13.3567 15.2663 13.2246 15.2927C12.9693 15.3438 12.714 15.395 12.4588 15.4461C12.4447 15.4489 12.4306 15.4517 12.4165 15.4545C12.2971 15.4785 12.1777 15.5024 12.0582 15.5263C12.0484 15.5283 12.0385 15.5303 12.0286 15.5322C12.0237 15.5332 12.0189 15.5342 12.0139 15.5352C11.9761 15.5428 11.9383 15.5503 11.9005 15.5579C11.8647 15.5651 11.8288 15.5723 11.7929 15.5795C11.7712 15.5838 11.7496 15.5881 11.7279 15.5925C11.6388 15.6103 11.5498 15.6282 11.4608 15.6463C11.4481 15.6489 11.4354 15.6515 11.4227 15.6541C11.3832 15.6621 11.3438 15.6701 11.3043 15.6782C11.2904 15.681 11.2765 15.6838 11.2626 15.6867C11.2563 15.688 11.25 15.6893 11.2435 15.6906C11.2349 15.6923 11.2349 15.6923 11.2261 15.6941C11.2211 15.6952 11.2161 15.6962 11.211 15.6972C11.1973 15.6994 11.1973 15.6994 11.1719 15.6994C11.1719 14.2802 11.1719 12.861 11.1719 11.3987C10.9964 11.4342 10.8208 11.4696 10.6399 11.5061C10.5146 11.5312 10.3893 11.5563 10.2639 11.5813C10.1887 11.5963 10.1135 11.6113 10.0382 11.6263C10.0246 11.629 10.011 11.6318 9.99733 11.6345C9.87033 11.6598 9.74337 11.6853 9.61642 11.7108C9.58327 11.7175 9.55013 11.7241 9.51699 11.7308C9.51238 11.7317 9.50777 11.7326 9.50301 11.7336C9.48457 11.7373 9.46613 11.741 9.44768 11.7447C9.39404 11.7555 9.3404 11.7663 9.28676 11.7771C9.24948 11.7846 9.21219 11.7921 9.17489 11.7996C9.15964 11.8026 9.14439 11.8057 9.12915 11.8088C9.10832 11.813 9.08748 11.8172 9.06664 11.8214C9.06064 11.8226 9.05463 11.8238 9.04845 11.8251C9.04281 11.8262 9.03718 11.8273 9.03137 11.8285C9.02658 11.8294 9.02178 11.8304 9.01684 11.8314C8.99222 11.8354 8.96745 11.8377 8.9426 11.8401C8.94261 11.8453 8.94262 11.8506 8.94263 11.8559C8.94305 12.1647 8.94338 12.4736 8.94357 12.7824C8.9436 12.8195 8.94362 12.8566 8.94365 12.8937C8.94365 12.9011 8.94366 12.9085 8.94366 12.9161C8.94374 13.0356 8.94389 13.1551 8.94407 13.2746C8.94425 13.3973 8.94435 13.52 8.94439 13.6427C8.94442 13.7184 8.9445 13.794 8.94465 13.8697C8.94475 13.9216 8.94478 13.9736 8.94476 14.0255C8.94475 14.0554 8.94477 14.0854 8.94487 14.1153C8.94496 14.1428 8.94497 14.1702 8.9449 14.1977C8.94489 14.2076 8.94492 14.2175 8.94498 14.2273C8.94633 14.4624 8.86178 14.6837 8.71666 14.8735C8.68648 14.913 8.65761 14.9531 8.62913 14.9937C8.61409 15.0151 8.59898 15.0365 8.58388 15.0579C8.57905 15.0647 8.57905 15.0647 8.57411 15.0717C8.53451 15.1278 8.49453 15.1836 8.45454 15.2393C8.45069 15.2447 8.44684 15.2501 8.44287 15.2556C8.42314 15.2832 8.4034 15.3107 8.38367 15.3382C8.34869 15.387 8.31376 15.4358 8.27882 15.4846C8.21264 15.577 8.14643 15.6694 8.0802 15.7618C8.02869 15.8337 7.97721 15.9056 7.92574 15.9774C7.91428 15.9934 7.90283 16.0094 7.89137 16.0254C7.85563 16.0753 7.8199 16.1252 7.78419 16.1752C7.76765 16.1983 7.75111 16.2214 7.73457 16.2445C7.72677 16.2554 7.71897 16.2663 7.71117 16.2772C7.67423 16.3289 7.63723 16.3805 7.59984 16.4319C7.59711 16.4357 7.59439 16.4394 7.59158 16.4433C7.56423 16.4808 7.53493 16.5167 7.50494 16.5523C7.50048 16.5577 7.49602 16.5631 7.49143 16.5686C7.45016 16.6173 7.405 16.6625 7.35927 16.7074C7.35608 16.7106 7.35289 16.7137 7.34961 16.7169C7.31423 16.7516 7.27758 16.7835 7.23763 16.8134C7.2195 16.827 7.20193 16.8412 7.18431 16.8554C7.10864 16.9148 7.02678 16.9658 6.94127 17.0116C6.9363 17.0143 6.93134 17.017 6.92622 17.0198C6.74713 17.117 6.55657 17.1835 6.35511 17.2254C6.3499 17.2265 6.34468 17.2276 6.3393 17.2288C6.16302 17.2658 5.98619 17.3005 5.80947 17.3356C5.75122 17.3472 5.69298 17.3588 5.63474 17.3704C5.62392 17.3726 5.61311 17.3748 5.60229 17.3769C5.58602 17.3802 5.56975 17.3834 5.55348 17.3866C5.5154 17.3942 5.47731 17.4018 5.43922 17.4094C5.24716 17.4477 5.05512 17.4861 4.8631 17.5245C4.83028 17.5311 4.79746 17.5377 4.76463 17.5443C4.69923 17.5574 4.63384 17.5705 4.56844 17.5836C4.46078 17.6051 4.35311 17.6267 4.24545 17.6483C4.23921 17.6495 4.23921 17.6495 4.23286 17.6508C4.18665 17.66 4.14044 17.6693 4.09423 17.6785C4.01442 17.6945 3.93461 17.7105 3.8548 17.7265C3.84221 17.729 3.82963 17.7315 3.81704 17.734C3.70113 17.7572 3.58523 17.7804 3.46932 17.8037C3.3952 17.8185 3.32108 17.8334 3.24696 17.8482C3.24286 17.849 3.23877 17.8498 3.23455 17.8507C2.94312 17.909 2.65167 17.9673 2.36021 18.0256C2.08682 18.0803 1.81342 18.135 1.54004 18.1897C1.51129 18.1955 1.48254 18.2012 1.4538 18.207C1.29344 18.2391 1.13308 18.2712 0.972729 18.3033C0.899805 18.318 0.826881 18.3326 0.753957 18.3472C0.710815 18.3558 0.667674 18.3645 0.624534 18.3731C0.416441 18.4149 0.208269 18.4562 -6.34522e-05 18.4969C-0.000839357 18.4552 0.000800971 18.4149 0.0064678 18.3736C0.00717157 18.3682 0.00787572 18.3629 0.00860081 18.3574C0.0109322 18.3399 0.0133415 18.3224 0.0157699 18.3049C0.016609 18.2988 0.0174481 18.2927 0.0183126 18.2864C0.0870189 17.789 0.208115 17.3011 0.381828 16.8269C0.386148 16.8151 0.390435 16.8033 0.394712 16.7915C0.455067 16.6248 0.524773 16.4613 0.598244 16.2994C0.601772 16.2916 0.605284 16.2839 0.608779 16.2761C0.613559 16.2654 0.618427 16.2549 0.6233 16.2443C0.626005 16.2384 0.62871 16.2324 0.631496 16.2263C0.641235 16.2095 0.651286 16.2025 0.67086 16.197C0.677884 16.1956 0.677884 16.1956 0.685049 16.1942C0.690465 16.1931 0.695882 16.192 0.701462 16.1909C0.707417 16.1897 0.713371 16.1886 0.719506 16.1874C0.725833 16.1861 0.73216 16.1849 0.738679 16.1836C0.759974 16.1793 0.781281 16.1752 0.802588 16.171C0.817804 16.168 0.83302 16.165 0.848234 16.1619C0.881119 16.1554 0.914009 16.1489 0.946904 16.1425C0.999652 16.1321 1.05239 16.1216 1.10512 16.1112C1.12323 16.1076 1.14134 16.104 1.15945 16.1004C1.16397 16.0995 1.16849 16.0986 1.17314 16.0977C1.20564 16.0913 1.23814 16.0848 1.27064 16.0784C1.4516 16.0426 1.63246 16.0064 1.81331 15.9702C1.85102 15.9626 1.88873 15.9551 1.92643 15.9475C1.99393 15.934 2.06142 15.9205 2.12891 15.9069C2.28572 15.8755 2.44255 15.8441 2.59937 15.8127C2.62419 15.8077 2.64901 15.8028 2.67382 15.7978C2.95698 15.7411 3.24015 15.6845 3.52333 15.6278C3.8091 15.5707 4.09487 15.5135 4.38062 15.4563C4.38677 15.4551 4.38677 15.4551 4.39304 15.4538C4.47121 15.4382 4.54938 15.4225 4.62755 15.4069C4.74366 15.3836 4.85977 15.3604 4.97588 15.3371C4.98004 15.3363 4.9842 15.3354 4.98849 15.3346C5.02632 15.327 5.06415 15.3194 5.10198 15.3119C5.16029 15.3002 5.21859 15.2885 5.27689 15.2768C5.28518 15.2752 5.29348 15.2735 5.30177 15.2719C5.31422 15.2694 5.32667 15.2669 5.33913 15.2644C5.47847 15.2365 5.61782 15.2086 5.75717 15.1807C5.78921 15.1743 5.82125 15.1678 5.85329 15.1614C5.85778 15.1605 5.86228 15.1596 5.86691 15.1587C5.88942 15.1542 5.91193 15.1497 5.93444 15.1452C5.98576 15.1349 6.03708 15.1246 6.0884 15.1144C6.10452 15.1111 6.12064 15.1079 6.13677 15.1047C6.17537 15.0969 6.21397 15.0892 6.25257 15.0815C6.3186 15.0683 6.38462 15.055 6.45062 15.0417C6.47871 15.036 6.5068 15.0304 6.5349 15.0247C6.548 15.0221 6.5611 15.0194 6.5742 15.0168C6.59201 15.0131 6.60984 15.0096 6.62766 15.006C6.63289 15.0049 6.63813 15.0038 6.64352 15.0027C6.66291 14.9988 6.68072 14.9955 6.7006 14.9955C6.7006 14.1038 6.7006 13.2122 6.7006 12.2935C6.52504 12.3289 6.34948 12.3643 6.1686 12.4008C5.9459 12.4455 5.9459 12.4455 5.83765 12.4672C5.79253 12.4762 5.74741 12.4852 5.70229 12.4943C5.58962 12.5168 5.47694 12.5393 5.36427 12.5619C5.35732 12.5633 5.35732 12.5633 5.35022 12.5647C5.17629 12.5995 5.00237 12.6343 4.82844 12.669C4.5664 12.7214 4.30436 12.7739 4.04234 12.8263C4.02991 12.8288 4.01747 12.8313 4.00504 12.8338C3.88178 12.8585 3.75853 12.8832 3.63527 12.9078C3.50787 12.9334 3.38046 12.9589 3.25306 12.9844C3.24063 12.9869 3.22821 12.9894 3.21578 12.9919C3.01639 13.0318 2.81701 13.0717 2.61761 13.1116C2.60304 13.1145 2.58848 13.1174 2.57391 13.1203C2.47645 13.1398 2.37899 13.1593 2.28154 13.1787C2.23339 13.1884 2.18524 13.198 2.13709 13.2076C2.13234 13.2086 2.12759 13.2095 2.12269 13.2105C1.98655 13.2377 1.85042 13.265 1.7143 13.2923C1.68077 13.2991 1.64724 13.3058 1.6137 13.3125C1.60906 13.3135 1.60441 13.3144 1.59963 13.3154C1.58109 13.3191 1.56256 13.3228 1.54403 13.3265C1.49054 13.3373 1.43706 13.348 1.38359 13.3588C1.34677 13.3662 1.30994 13.3736 1.27311 13.381C1.25811 13.384 1.24311 13.387 1.22812 13.39C1.2077 13.3941 1.18728 13.3982 1.16685 13.4023C1.16096 13.4035 1.15507 13.4047 1.14901 13.4059C1.11648 13.4124 1.08432 13.4174 1.05127 13.4208C1.05514 13.3488 1.06384 13.2776 1.07383 13.2061C1.07466 13.2002 1.07548 13.1943 1.07633 13.1882C1.14531 12.696 1.26819 12.2145 1.43941 11.7452C1.44382 11.7331 1.44822 11.721 1.45261 11.7089C1.51837 11.528 1.59505 11.3515 1.67701 11.1767C1.68511 11.1608 1.68511 11.1608 1.68744 11.1452C1.69919 11.1274 1.70347 11.1269 1.72431 11.1216C1.73643 11.1191 1.74859 11.1168 1.76078 11.1145C1.76747 11.1132 1.77416 11.1119 1.78105 11.1105C1.80364 11.106 1.82625 11.1017 1.84887 11.0974C1.86505 11.0942 1.88122 11.091 1.89739 11.0878C1.93244 11.0809 1.96751 11.0741 2.00259 11.0673C2.05896 11.0564 2.1153 11.0453 2.17163 11.0342C2.19107 11.0304 2.21051 11.0266 2.22994 11.0228C2.2348 11.0218 2.23967 11.0209 2.24468 11.0199C2.27977 11.013 2.31486 11.0061 2.34996 10.9992C2.48883 10.9721 2.62762 10.9446 2.76634 10.9168C2.77111 10.9159 2.77588 10.9149 2.78079 10.9139C2.82893 10.9043 2.87708 10.8946 2.92522 10.885C2.98836 10.8723 3.05151 10.8597 3.11466 10.8471C3.11948 10.8461 3.12431 10.8451 3.12928 10.8441C3.14872 10.8403 3.16817 10.8364 3.18761 10.8325C3.24044 10.8219 3.29327 10.8114 3.3461 10.8008C3.35078 10.7998 3.35547 10.7989 3.36029 10.7979C3.66096 10.7378 3.96162 10.6776 4.26227 10.6174C4.38553 10.5927 4.5088 10.568 4.63206 10.5433C4.64861 10.54 4.66516 10.5367 4.68171 10.5334C4.88243 10.4932 5.08315 10.453 5.28388 10.4129C5.29871 10.4099 5.31355 10.4069 5.32838 10.404C5.42216 10.3852 5.51594 10.3665 5.60972 10.3477C5.6626 10.3372 5.71547 10.3266 5.76834 10.316C5.77304 10.3151 5.77774 10.3141 5.78258 10.3132C5.91366 10.287 6.04472 10.2607 6.17575 10.2343C6.20054 10.2293 6.22534 10.2243 6.25013 10.2193C6.25807 10.2177 6.26602 10.2161 6.2742 10.2145C6.28989 10.2113 6.30558 10.2081 6.32128 10.205C6.36608 10.196 6.41088 10.1869 6.45568 10.1779C6.48273 10.1724 6.50979 10.167 6.53685 10.1615C6.54925 10.159 6.56165 10.1565 6.57405 10.154C6.59079 10.1506 6.60753 10.1472 6.62428 10.1439C6.62913 10.1429 6.63399 10.1419 6.63899 10.1409C6.66022 10.1366 6.67877 10.1342 6.7006 10.1342C6.70058 10.1233 6.70058 10.1233 6.70056 10.1122C6.70013 9.86377 6.6997 9.61532 6.6993 9.36687C6.69928 9.35936 6.69928 9.35936 6.69927 9.3517C6.69839 8.81539 6.69763 8.27908 6.69712 7.74277C6.69711 7.73086 6.69709 7.71895 6.69708 7.70704C6.69684 7.45698 6.69662 7.20693 6.69641 6.95688C6.69631 6.83127 6.69621 6.70566 6.6961 6.58005C6.69608 6.56111 6.69606 6.54216 6.69605 6.52321C6.6958 6.23144 6.69547 5.93967 6.69495 5.6479C6.69494 5.64163 6.69493 5.63536 6.69492 5.62889C6.69473 5.52775 6.69455 5.4266 6.69436 5.32546C6.69381 5.03413 6.69331 4.7428 6.6931 4.45147C6.6931 4.44548 6.69309 4.43949 6.69309 4.43332C6.69299 4.3018 6.69292 4.17029 6.69286 4.03878C6.69284 3.98586 6.69282 3.93294 6.69279 3.88003C6.69279 3.87424 6.69279 3.86844 6.69278 3.86248C6.69269 3.67587 6.69234 3.48927 6.69185 3.30266C6.69136 3.11469 6.69113 2.92671 6.69125 2.73874C6.69127 2.71276 6.69128 2.68678 6.69129 2.66081C6.69129 2.65571 6.6913 2.65062 6.6913 2.64538C6.69133 2.56475 6.69108 2.48412 6.69072 2.40349C6.69037 2.32421 6.69032 2.24492 6.69057 2.16564C6.69071 2.11915 6.69063 2.07268 6.69021 2.0262C6.68993 1.99167 6.69007 1.95716 6.69038 1.92264C6.69044 1.90877 6.69036 1.8949 6.69013 1.88103C6.68905 1.81313 6.68945 1.76078 6.73993 1.70875C6.75044 1.69879 6.76116 1.68921 6.77219 1.67977C6.79056 1.66333 6.80637 1.64488 6.82252 1.62653C6.84895 1.59733 6.87589 1.56862 6.90327 1.5402C6.91465 1.52834 6.92581 1.51634 6.93692 1.50425C6.96224 1.4769 6.98841 1.45029 7.01463 1.42371C7.02816 1.40998 7.04166 1.39622 7.05511 1.38242C7.11417 1.32206 7.17539 1.26383 7.23708 1.20586C7.25411 1.18986 7.2711 1.17382 7.28809 1.15778C7.29907 1.14745 7.31005 1.13712 7.32102 1.12679C7.32603 1.12207 7.33103 1.11734 7.33618 1.11248C7.36255 1.08775 7.38938 1.06395 7.4177 1.04122C7.42935 1.03157 7.44025 1.02146 7.4511 1.01103C7.4699 0.993056 7.48957 0.976444 7.50986 0.959984C7.52603 0.946686 7.54179 0.933015 7.55758 0.919326C7.58633 0.894606 7.61599 0.871305 7.64627 0.848284C7.66294 0.835334 7.67897 0.821936 7.69494 0.808231C7.72771 0.780169 7.76182 0.753915 7.79627 0.727706C7.80429 0.721536 7.81231 0.715362 7.82032 0.709183C7.86885 0.671796 7.91776 0.635025 7.96769 0.5993C7.98203 0.589015 7.99632 0.578675 8.01061 0.568334C8.08185 0.516882 8.15367 0.466383 8.22694 0.417537C8.23237 0.413911 8.2378 0.410286 8.24339 0.406551C8.41334 0.293416 8.58832 0.187138 8.76726 0.0870868C8.78574 0.0767199 8.80415 0.0662641 8.82257 0.0558036C8.83527 0.0486332 8.84797 0.0414645 8.86067 0.0342976C8.86666 0.0308765 8.87266 0.0274554 8.87883 0.0239306C8.88441 0.0208007 8.88998 0.0176708 8.89572 0.014446C8.90312 0.0102565 8.90312 0.0102565 8.91067 0.00598228C8.9236 0 8.9236 0 8.9426 0Z" fill="#673398"/>
<path d="M19.0001 16.2773C19.0036 16.3413 18.9934 16.4042 18.9847 16.4675C18.9834 16.4766 18.9834 16.4766 18.9822 16.4859C18.9023 17.0644 18.7525 17.6363 18.4324 18.4028C18.4215 18.4273 18.4108 18.452 18.4003 18.4767C18.3954 18.4882 18.3904 18.4997 18.3854 18.5112C18.3833 18.5163 18.3812 18.5214 18.379 18.5266C18.376 18.5335 18.376 18.5335 18.3729 18.5404C18.3712 18.5443 18.3696 18.5482 18.3679 18.5522C18.3519 18.573 18.3201 18.5762 18.2947 18.5813C18.2845 18.5833 18.2845 18.5833 18.2741 18.5854C18.2667 18.5869 18.2592 18.5883 18.2516 18.5898C18.2437 18.5914 18.2357 18.593 18.2276 18.5946C18.2057 18.599 18.1837 18.6033 18.1618 18.6077C18.1382 18.6123 18.1146 18.617 18.0911 18.6217C18.0503 18.6298 18.0096 18.6379 17.9688 18.646C17.9038 18.6589 17.8389 18.6718 17.774 18.6848C17.7574 18.6881 17.7408 18.6914 17.7242 18.6947C17.7131 18.6969 17.702 18.6991 17.6908 18.7013C17.6514 18.7092 17.6119 18.717 17.5724 18.7249C17.4278 18.7536 17.2831 18.7825 17.1385 18.8115C17.1339 18.8124 17.1292 18.8133 17.1244 18.8143C17.0689 18.8254 17.0133 18.8366 16.9578 18.8477C16.9069 18.8579 16.8561 18.8681 16.8053 18.8783C16.7914 18.8811 16.7776 18.8838 16.7638 18.8866C16.7546 18.8885 16.7454 18.8903 16.7362 18.8921C16.7088 18.8976 16.6814 18.9031 16.654 18.9086C16.4682 18.9459 16.2825 18.9831 16.0967 19.0203C16.0718 19.0252 16.0468 19.0302 16.0219 19.0352C15.9476 19.0501 15.8733 19.065 15.7989 19.0799C15.653 19.1091 15.5071 19.1383 15.3611 19.1675C15.3023 19.1793 15.2435 19.1911 15.1847 19.2029C15.147 19.2104 15.1092 19.218 15.0714 19.2255C15.0672 19.2264 15.0631 19.2272 15.0588 19.2281C14.9387 19.2521 14.8186 19.2762 14.6985 19.3002C14.6285 19.3142 14.5585 19.3282 14.4886 19.3423C14.4803 19.3439 14.472 19.3456 14.4637 19.3472C14.2564 19.3888 14.049 19.4303 13.8417 19.4717C13.837 19.4727 13.8322 19.4736 13.8273 19.4746C13.7742 19.4852 13.7212 19.4958 13.6681 19.5064C13.6486 19.5103 13.6291 19.5142 13.6097 19.5181C13.6048 19.5191 13.6 19.52 13.5951 19.521C13.2973 19.5806 12.9995 19.6402 12.7017 19.6998C12.6878 19.7026 12.6739 19.7054 12.66 19.7082C12.6141 19.7174 12.5682 19.7266 12.5223 19.7358C12.5178 19.7367 12.5133 19.7376 12.5086 19.7385C12.4859 19.7431 12.4631 19.7477 12.4403 19.7522C12.2552 19.7893 12.0701 19.8264 11.8851 19.8635C11.8761 19.8653 11.8672 19.867 11.8583 19.8688C11.8539 19.8697 11.8496 19.8706 11.845 19.8715C11.8151 19.8775 11.7852 19.8835 11.7552 19.8895C11.7389 19.8928 11.7225 19.896 11.7061 19.8993C11.6943 19.9017 11.6943 19.9017 11.6822 19.9041C11.6229 19.916 11.5637 19.9278 11.5044 19.9397C11.4655 19.9474 11.4266 19.9553 11.3877 19.9631C11.3649 19.9677 11.342 19.9723 11.3192 19.9769C11.3089 19.979 11.2986 19.981 11.2883 19.9831C11.2745 19.9859 11.2606 19.9887 11.2468 19.9915C11.2354 19.9938 11.2354 19.9938 11.2237 19.9962C11.206 19.999 11.1901 20.0001 11.1721 19.9994C11.1797 19.9139 11.1893 19.829 11.2018 19.744C11.2026 19.7384 11.2034 19.7328 11.2043 19.7271C11.2629 19.3282 11.354 18.9342 11.4825 18.5499C11.4841 18.5449 11.4858 18.5399 11.4875 18.5347C11.556 18.3295 11.632 18.1276 11.7204 17.9292C11.7312 17.9049 11.7412 17.8804 11.7507 17.8557C11.7572 17.839 11.7641 17.8224 11.7709 17.8058C11.7741 17.798 11.7771 17.7901 11.78 17.7822C11.7893 17.7565 11.7999 17.736 11.8181 17.7149C11.836 17.7076 11.836 17.7076 11.8584 17.7032C11.8628 17.7023 11.8671 17.7014 11.8715 17.7004C11.8817 17.6984 11.8918 17.6963 11.9019 17.6944C11.9213 17.6906 11.9407 17.6867 11.96 17.6827C12.0054 17.6734 12.0509 17.6644 12.0964 17.6553C12.1201 17.6506 12.1438 17.6459 12.1675 17.6412C12.2083 17.6331 12.249 17.6249 12.2898 17.6168C12.3545 17.604 12.4192 17.5911 12.4839 17.5782C12.5004 17.5749 12.5169 17.5716 12.5333 17.5684C12.5444 17.5662 12.5554 17.564 12.5664 17.5618C12.6052 17.554 12.6441 17.5463 12.6829 17.5386C12.8763 17.5 13.0697 17.4614 13.263 17.4226C13.304 17.4144 13.345 17.4062 13.386 17.398C13.4432 17.3865 13.5004 17.3751 13.5576 17.3636C13.6653 17.3421 13.7729 17.3205 13.8806 17.2989C13.8848 17.2981 13.8889 17.2973 13.8932 17.2964C13.931 17.2888 13.9688 17.2813 14.0066 17.2737C14.0654 17.2619 14.1241 17.2502 14.1829 17.2384C14.187 17.2376 14.1912 17.2368 14.1954 17.2359C14.2164 17.2317 14.2373 17.2275 14.2582 17.2233C14.2959 17.2158 14.3336 17.2082 14.3713 17.2007C14.3923 17.1965 14.4132 17.1923 14.4342 17.1881C14.4426 17.1864 14.4509 17.1847 14.4593 17.1831C14.4635 17.1822 14.4676 17.1814 14.4719 17.1805C14.8866 17.0975 15.3014 17.0145 16.9226 16.6898C16.9267 16.689 16.9309 16.6882 16.9352 16.6873C16.9435 16.6857 16.9519 16.684 16.9603 16.6823C16.9812 16.6781 17.0022 16.6739 17.0231 16.6697C17.0608 16.6622 17.0986 16.6546 17.1363 16.6471C17.1572 16.6429 17.1782 16.6387 17.1992 16.6345C17.2033 16.6336 17.2075 16.6328 17.2117 16.632C17.2701 16.6203 17.3286 16.6086 17.387 16.5969C17.4244 16.5894 17.4619 16.5819 17.4994 16.5743C17.5035 16.5735 17.5077 16.5727 17.5119 16.5718C17.6238 16.5494 17.7358 16.527 17.8477 16.5046C17.8543 16.5033 17.8543 16.5033 17.861 16.502C17.8654 16.5011 17.8699 16.5002 17.8744 16.4993C17.9055 16.4931 17.9365 16.4868 17.9675 16.4806C17.9719 16.4798 17.9763 16.4789 17.9808 16.478C17.9983 16.4745 18.0159 16.471 18.0335 16.4674C18.0809 16.4579 18.1282 16.4485 18.1756 16.439C18.4096 16.3922 18.4096 16.3922 18.6434 16.3451C18.6611 16.3415 18.6788 16.338 18.6964 16.3344C18.7076 16.3322 18.7187 16.3299 18.7299 16.3277C18.7379 16.3261 18.7379 16.3261 18.746 16.3244C18.7765 16.3183 18.8069 16.3121 18.8374 16.3059C18.8553 16.3023 18.8733 16.2987 18.8913 16.2951C18.9032 16.2926 18.9151 16.2902 18.9271 16.2878C18.9375 16.2857 18.9375 16.2857 18.9481 16.2835C18.9541 16.2823 18.9601 16.2811 18.9662 16.2799C18.9811 16.2773 18.9811 16.2773 19.0001 16.2773Z" fill="#673398"/>
</g>
<defs>
<clipPath id="clip0_981_56747">
<rect width="19" height="20" fill="white"/>
</clipPath>
</defs>
</svg>
